<?xml version="1.0" encoding="utf-8"?>
<!-- Generator: Adobe Illustrator 14.0.0, SVG Export Plug-In . SVG Version: 6.00 Build 43363)  -->
<!DOCTYPE svg PUBLIC "-//W3C//DTD SVG 1.1//EN" "http://www.w3.org/Graphics/SVG/1.1/DTD/svg11.dtd">
<svg version="1.1" id="Layer_2" xmlns="http://www.w3.org/2000/svg" xmlns:xlink="http://www.w3.org/1999/xlink" x="0px" y="0px"
	 width="400px" height="400px" viewBox="0 0 400 400" enable-background="new 0 0 400 400" xml:space="preserve">
<g>
	<circle fill-rule="evenodd" clip-rule="evenodd" fill="#53C9ED" cx="190.403" cy="92.55" r="23.05"/>
	<path fill-rule="evenodd" clip-rule="evenodd" fill="#53C9ED" d="M256.594,147.631l31.687-38.824
		c3.497-4.285,10.495-4.362,15.628-0.171l1.643,1.34c5.135,4.191,6.461,11.062,2.965,15.346c0,0-37.64,46.27-38.512,46.778
		c-4.412,4.632-8.461,6.728-13.859,4.187l-37.122-17.471V186h-60.72v-38.684l-54.157-72.381c-6.249-8.351-7.012-18.34-1.707-22.308
		l1.697-1.271c5.308-3.972,14.674-0.419,20.923,7.934l48.777,65.191h34.097L256.594,147.631z"/>
	<path fill="#53C9ED" d="M159.503,356.801c0,2.65,2.148,4.799,4.799,4.799l0,0c2.651,0,4.8-2.148,4.8-4.799V265.6
		c0-2.651-2.148-4.8-4.8-4.8l0,0c-2.65,0-4.799,2.148-4.799,4.8V356.801z"/>
	<path fill="#53C9ED" d="M88.46,128.473c9.444,17.861,53.994,60.136,53.994,60.136c2.157,4.136,5.811,6.497,8.16,5.271l0,0
		c2.352-1.225,2.508-5.572,0.352-9.708c0,0-44.854-42.76-54.344-60.804C86.856,104.8,76.753,41.837,76.753,41.837
		c-2.156-4.138-5.811-6.498-8.161-5.272l0,0c-2.351,1.225-1.87,4.935-0.349,9.709C68.243,46.274,78.568,109.765,88.46,128.473z"/>
	<path fill-rule="evenodd" clip-rule="evenodd" fill="#53C9ED" d="M220.993,219.764l13.847,50.956l37.23,48.658
		c3.849,5.028,1.842,13.032-4.484,17.874l-2.023,1.549c-6.326,4.839-14.574,4.686-18.425-0.347l-38.7-50.578
		c-0.779-1.02-1.307-2.164-1.619-3.376c-0.717-0.833-1.25-1.784-1.539-2.848l-7.947-29.245c-3.057,0.421-6.562,0.693-10.292,0.765
		l-3.824,0.073c-11.378,0.218-23.561-4.499-24.396-5.07l-22.519-15.411l-6.271,41.158c-0.878,5.765-7.974,9.467-15.849,8.268
		l-2.52-0.384c-7.874-1.199-13.547-6.845-12.668-12.613l8.83-57.962c0.224-1.468,3.203-9.405,4.99-12.018l1.439-2.103
		c4.498-6.573,11.845-9.371,16.41-6.246l27.638,18.915V197.5h60.72L220.993,219.764z"/>
</g>
</svg>
